# xmcd
#
# Track frame offsets:
#	150
#	14175
#	30150
#	46050
#	60450
#	77625
#	93150
#	104325
#	119250
#	133050
#	149550
#
# Disc length: 2198 seconds
#
# Revision: 1
# Processed by: cddbd v1.5.1PL2 Copyright (c) Steve Scherf et al.
# Submitted via: audiograbber 1.83.01
#
DISCID=8c08940b
DTITLE=MARI MARI - Linija zivota
DYEAR=2004
DGENRE=Pop
TTITLE0=Dobro i zlo
TTITLE1=Tvoja jedina
TTITLE2=Da te volim
TTITLE3=Dises iz mene
TTITLE4=Secas li se
TTITLE5=Kad me ne volis
TTITLE6=Zaljubljena
TTITLE7=Sve je to na obraz moj
TTITLE8=Kad ponos ubije ljubav
TTITLE9=Lutalica
TTITLE10=Linija zivota
EXTD=
EXTT0=
EXTT1=
EXTT2=
EXTT3=
EXTT4=
EXTT5=
EXTT6=
EXTT7=
EXTT8=
EXTT9=
EXTT10=
PLAYORDER=
